<?xml version="1.0" encoding="UTF-8" standalone="no"?>
<svg
   version="1.0"
   id="MatOzone"
   x="0px"
   y="0px"
   width="32"
   height="24"
   viewBox="0 0 32 24"
   xmlns="http://www.w3.org/2000/svg"
   xmlns:svg="http://www.w3.org/2000/svg">
  <defs
     id="defs1" />
  <style
     type="text/css"
     id="style1">
	.st0{fill:#EEEEEE;}
	.st1{fill:#1CB0F6;}
	.st2{fill:#FF4B4B;}
</style>
  <path
     id="Blanc"
     class="st0"
     d="M 31.116022,2.4751381 C 30.585635,1.5911602 30.055249,1.0607735 29.171271,0.53038674 28.464088,0.17679558 27.756906,0 25.635359,0 H 6.1878453 C 4.2430939,0 3.359116,0.17679558 2.6519337,0.53038674 1.9447514,0.8839779 1.0607735,1.5911602 0.53038674,2.4751381 0.35359116,3.1823204 0,3.8895028 0,5.8342541 V 17.856354 c 0,1.944751 0.35359116,2.828729 0.70718232,3.535911 1.62392988,2.165242 2.29476088,2.589874 5.65745858,2.594028 l 19.2469401,0.02378 c 2.121545,0.0026 2.852507,-0.319463 3.736485,-0.673054 0.707183,-0.353592 1.414365,-1.060774 1.944752,-1.944752 0.176795,-0.707182 0.530386,-1.414364 0.530386,-3.535911 V 5.8342541 c 0,-1.9447513 -0.353591,-2.6519337 -0.707182,-3.359116 z"
     style="stroke-width:1.76796" />
  <path
     id="Blau"
     class="st1"
     d="M 6.1878453,0 C 4.2430939,0 0.03634585,-0.04028697 0.03634585,-0.04028697 c 0,0 -0.05221275,3.10265017 -0.03634585,5.87454107 V 17.856354 c 0,1.944751 0.04139632,6.103943 0.04139632,6.103943 0,0 4.78639228,0.131428 6.32324458,0.07355 L 10.855864,24.057628 10.78453,0 Z"
     style="stroke-width:1.76796" />
  <path
     id="Vermell"
     class="st2"
     d="M 25.635359,0 H 21.21547 v 24.035539 l 5.706385,-0.03363 c 2.121511,-0.0125 5.125052,0.0076 5.125052,0.0076 0,0 -0.123221,-3.925967 -0.04691,-6.153208 V 5.8342541 c 0,-1.9447513 -0.001,-5.8561933 -0.001,-5.8561933 0,0 -4.424038,0.05886041 -6.363632,0.0219392 z"
     style="stroke-width:1.76796" />
</svg>
