<?xml version="1.0" encoding="UTF-8" standalone="no"?>
<svg
   version="1.0"
   id="MatOzone"
   x="0px"
   y="0px"
   width="32"
   height="24"
   viewBox="0 0 32 24"
   xmlns="http://www.w3.org/2000/svg"
   xmlns:svg="http://www.w3.org/2000/svg">
  <defs
     id="defs1" />
  <style
     type="text/css"
     id="style1">
	.st0{fill-rule:evenodd;clip-rule:evenodd;fill:#EEEEEE;}
	.st1{fill-rule:evenodd;clip-rule:evenodd;fill:#FF4B4B;}
	.st2{fill-rule:evenodd;clip-rule:evenodd;fill:#1CB0F6;}
	.st3{fill:#EEEEEE;}
</style>
  <path
     id="Requadre_blanc"
     class="st0"
     d="m 32.045503,2.5897707 c 0,0 -1.823281,-1.523104 -2.71217,-2.05643737 C 28.622222,0.17777778 27.911111,0 25.777778,0 H 6.2222222 C 4.2666667,0 3.3777778,0.17777778 2.6666667,0.53333333 1.9555556,0.88888889 1.0666667,1.6 0.53333333,2.4888889 0.35555556,3.2 0,3.9111111 0,5.8666667 V 17.955556 c 0,1.955555 -0.1318949,2.987112 0.22366065,3.698223 C 0.75699394,22.36489 1.7777778,22.933333 2.6666667,23.466667 3.3777778,23.822222 4.0888889,24 6.4,24 h 19.377778 c 2.133333,0 2.844444,-0.177778 3.733333,-0.533333 0.711111,-0.355556 2.493592,-2.190947 2.493592,-2.190947 0,0 -0.0047,-1.186831 -0.0047,-3.320164 V 5.8666667 c 0,-1.9555556 0.0455,-3.276896 0.0455,-3.276896 z"
     style="stroke-width:1.77778" />
  <path
     id="_x35_"
     class="st1"
     d="m 31.466667,21.155556 -31.68234292,0.01189 c 0.45086033,1.024656 -0.0958608,2.846675 -0.0958608,2.846675 0,0 4.40043232,-0.04297 6.71153672,-0.03734 l 19.377778,0.04721 c 2.133327,0.0052 6.24192,-0.03364 6.24192,-0.03364 l -0.01194,-1.508925 c 0,0 -0.0061,-1.124306 -0.0061,-1.302083 z"
     style="stroke-width:1.77778" />
  <path
     id="_x34_"
     class="st1"
     d="m 0,17.955556 c 0,0.177777 0,0.355555 0,0.533333 h 32 c 0,-0.177778 0,-0.355556 0,-0.533333 V 16 H 0 Z"
     style="stroke-width:1.77778" />
  <rect
     id="_x33_"
     y="10.666667"
     class="st1"
     width="32"
     height="2.6666667"
     x="0"
     style="stroke-width:1.77778" />
  <path
     id="_x32_"
     class="st1"
     d="M 0,5.3333333 C 0,5.5111111 0,5.6888889 0,5.8666667 V 7.8222222 H 32 V 5.8666667 c 0,-0.3555556 0,-0.5333334 0,-0.7111111 z"
     style="stroke-width:1.77778" />
  <path
     id="_x31_"
     class="st1"
     d="m 0.53333333,2.6666667 31.51216967,0.00841 c 0,-0.1777778 -0.0012,-1.4892414 -0.0012,-1.4892414 l -0.0052,-1.16531465 C 32.039094,0.02051745 27.733333,0 25.6,0 H 6.2222222 C 4.2666667,0 3.3777778,0.17777778 2.6666667,0.53333333 c -0.7111111,0.35555556 -1.2444445,0.71111107 -1.6,1.24444447 0,0.1777778 -0.17777781,0.1777778 -0.17777781,0.3555555 C 0.71111111,2.3111111 0.71111111,2.4888889 0.53333333,2.6666667 Z"
     style="stroke-width:1.77778" />
  <path
     id="Requadre_1_"
     class="st2"
     d="M 16,0 H 6.2222222 C 4.2666667,0 0.00352271,-0.02545135 0.00352271,-0.02545135 c 0,0 0.06683825,3.99758405 -0.00352271,5.89211805 v 4.8000003 h 16 z"
     style="stroke-width:1.77778" />
  <path
     id="S6"
     class="st3"
     d="M 7.4875598,4.5902009 C 7.4299193,4.4119905 7.3118713,4.1101651 7.1738977,4.1117284 6.9415664,4.1143608 6.9966098,4.5753322 6.8126102,4.7252205 6.6726438,4.8392388 6.368514,4.7329772 6.3,4.9 6.2151372,5.1068775 6.5061438,5.3122876 6.6,5.5 6.656412,5.6596387 6.411721,5.9022643 6.546238,6.0050852 6.7203563,6.1381768 6.922918,5.814224 7.1588482,5.7663727 c 0.2371084,0 0.4338704,0.3669209 0.6210171,0.2462375 0.167343,-0.1079128 -0.00424,-0.4200451 0.028542,-0.5966784 0.1134287,-0.1302989 0.4179144,-0.2036501 0.4,-0.3747795 C 8.1893475,4.8590841 7.8497875,4.7721714 7.6567129,4.7373076 7.5844569,4.7242602 7.5101546,4.6600587 7.4875598,4.5902009 Z"
     transform="matrix(1.7777778,0,0,1.7777778,0.50726553,-1.7777778)" />
  <path
     id="path1"
     class="st3"
     d="M 7.4875598,4.5902009 C 7.4299193,4.4119905 7.3118713,4.1101651 7.1738977,4.1117284 6.9415664,4.1143608 6.9966098,4.5753322 6.8126102,4.7252205 6.6726438,4.8392388 6.368514,4.7329772 6.3,4.9 6.2151372,5.1068775 6.5061438,5.3122876 6.6,5.5 6.656412,5.6596387 6.411721,5.9022643 6.546238,6.0050852 6.7203563,6.1381768 6.922918,5.814224 7.1588482,5.7663727 c 0.2371084,0 0.4338704,0.3669209 0.6210171,0.2462375 0.167343,-0.1079128 -0.00424,-0.4200451 0.028542,-0.5966784 0.1134287,-0.1302989 0.4179144,-0.2036501 0.4,-0.3747795 C 8.1893475,4.8590841 7.8497875,4.7721714 7.6567129,4.7373076 7.5844569,4.7242602 7.5101546,4.6600587 7.4875598,4.5902009 Z"
     transform="matrix(1.7777778,0,0,1.7777778,-4.5019815,-1.82005)" />
  <path
     id="path3"
     class="st3"
     d="M 7.4875598,4.5902009 C 7.4299193,4.4119905 7.3118713,4.1101651 7.1738977,4.1117284 6.9415664,4.1143608 6.9966098,4.5753322 6.8126102,4.7252205 6.6726438,4.8392388 6.368514,4.7329772 6.3,4.9 6.2151372,5.1068775 6.5061438,5.3122876 6.6,5.5 6.656412,5.6596387 6.411721,5.9022643 6.546238,6.0050852 6.7203563,6.1381768 6.922918,5.814224 7.1588482,5.7663727 c 0.2371084,0 0.4338704,0.3669209 0.6210171,0.2462375 0.167343,-0.1079128 -0.00424,-0.4200451 0.028542,-0.5966784 0.1134287,-0.1302989 0.4179144,-0.2036501 0.4,-0.3747795 C 8.1893475,4.8590841 7.8497875,4.7721714 7.6567129,4.7373076 7.5844569,4.7242602 7.5101546,4.6600587 7.4875598,4.5902009 Z"
     transform="matrix(1.7777778,0,0,1.7777778,-9.2153237,-1.7777778)" />
  <path
     id="path5"
     class="st3"
     d="M 7.4875598,4.5902009 C 7.4299193,4.4119905 7.3118713,4.1101651 7.1738977,4.1117284 6.9415664,4.1143608 6.9966098,4.5753322 6.8126102,4.7252205 6.6726438,4.8392388 6.368514,4.7329772 6.3,4.9 6.2151372,5.1068775 6.5061438,5.3122876 6.6,5.5 6.656412,5.6596387 6.411721,5.9022643 6.546238,6.0050852 6.7203563,6.1381768 6.922918,5.814224 7.1588482,5.7663727 c 0.2371084,0 0.4338704,0.3669209 0.6210171,0.2462375 0.167343,-0.1079128 -0.00424,-0.4200451 0.028542,-0.5966784 0.1134287,-0.1302989 0.4179144,-0.2036501 0.4,-0.3747795 C 8.1893475,4.8590841 7.8497875,4.7721714 7.6567129,4.7373076 7.5844569,4.7242602 7.5101546,4.6600587 7.4875598,4.5902009 Z"
     transform="matrix(1.7777778,0,0,1.7777778,0.33817703,-5.9838544)" />
  <path
     id="path6"
     class="st3"
     d="M 7.4875598,4.5902009 C 7.4299193,4.4119905 7.3118713,4.1101651 7.1738977,4.1117284 6.9415664,4.1143608 6.9966098,4.5753322 6.8126102,4.7252205 6.6726438,4.8392388 6.368514,4.7329772 6.3,4.9 6.2151372,5.1068775 6.5061438,5.3122876 6.6,5.5 6.656412,5.6596387 6.411721,5.9022643 6.546238,6.0050852 6.7203563,6.1381768 6.922918,5.814224 7.1588482,5.7663727 c 0.2371084,0 0.4338704,0.3669209 0.6210171,0.2462375 0.167343,-0.1079128 -0.00424,-0.4200451 0.028542,-0.5966784 0.1134287,-0.1302989 0.4179144,-0.2036501 0.4,-0.3747795 C 8.1893475,4.8590841 7.8497875,4.7721714 7.6567129,4.7373076 7.5844569,4.7242602 7.5101546,4.6600587 7.4875598,4.5902009 Z"
     transform="matrix(1.7777778,0,0,1.7777778,-4.67107,-6.0261266)" />
  <path
     id="path7"
     class="st3"
     d="M 7.4875598,4.5902009 C 7.4299193,4.4119905 7.3118713,4.1101651 7.1738977,4.1117284 6.9415664,4.1143608 6.9966098,4.5753322 6.8126102,4.7252205 6.6726438,4.8392388 6.368514,4.7329772 6.3,4.9 6.2151372,5.1068775 6.5061438,5.3122876 6.6,5.5 6.656412,5.6596387 6.411721,5.9022643 6.546238,6.0050852 6.7203563,6.1381768 6.922918,5.814224 7.1588482,5.7663727 c 0.2371084,0 0.4338704,0.3669209 0.6210171,0.2462375 0.167343,-0.1079128 -0.00424,-0.4200451 0.028542,-0.5966784 0.1134287,-0.1302989 0.4179144,-0.2036501 0.4,-0.3747795 C 8.1893475,4.8590841 7.8497875,4.7721714 7.6567129,4.7373076 7.5844569,4.7242602 7.5101546,4.6600587 7.4875598,4.5902009 Z"
     transform="matrix(1.7777778,0,0,1.7777778,-9.3844123,-5.9838544)" />
</svg>
